<svg width="99" height="20" viewBox="0 0 99 20" fill="none" xmlns="http://www.w3.org/2000/svg">
<path d="M19.8505 6.55256C19.8505 7.07674 19.5071 7.51356 19.0949 7.51356H0.755555C0.343434 7.51356 0 7.07674 0 6.55256V1.3399C0 0.815722 0.343434 0.378906 0.755555 0.378906H19.0949C19.5071 0.378906 19.8505 0.815722 19.8505 1.3399V6.55256Z" fill="#FAA837"/>
<path d="M19.8505 18.4905C19.8505 19.0147 19.5071 19.4515 19.0949 19.4515H0.755555C0.343434 19.4515 0 19.0147 0 18.4905V9.14263C0 8.61846 0.343434 8.18164 0.755555 8.18164H19.0949C19.5071 8.18164 19.8505 8.61846 19.8505 9.14263V18.4905Z" fill="#365A89"/>
<path fill-rule="evenodd" clip-rule="evenodd" d="M18.109 9.58082C17.7427 6.95992 16.5063 5.44563 14.9723 4.33903C14.4457 3.93134 13.8733 3.61101 13.278 3.29067C13.507 1.77638 15.6363 2.70825 15.705 0.931873C14.377 -0.669783 12.1104 1.07748 11.9043 2.9121L11.1029 2.67913C11.0572 1.86375 11.2174 0.728025 10.9885 0.145605C10.9198 0.116484 10.874 0.058242 10.8282 0C10.21 0 9.59184 0 8.97366 0C8.65312 0.553299 8.88207 1.8055 8.81339 2.67913C8.51574 2.67913 8.26389 2.7665 7.98915 2.82474C7.78308 0.990115 5.53931 -0.757146 4.23426 0.84451C4.28006 2.59177 6.40935 1.6599 6.6383 3.17419C4.32585 4.39727 2.28814 5.99893 1.78443 9.58082C1.78443 9.58082 1.71575 9.87202 1.78443 10.8621C2.28814 14.2984 4.18847 15.9874 6.47803 17.1232C6.29487 17.5017 6.27197 17.9968 5.88275 18.1133C5.58511 18.2006 5.28746 17.9385 5.01272 17.9677C4.39453 18.055 4.11979 18.7248 3.86793 19.482C4.82955 20.4721 6.82147 19.8605 7.46255 19.1616C7.94335 18.6375 8.12652 17.5017 8.83628 17.7638C8.92787 18.5501 8.63022 19.5111 8.95076 19.9479C9.61473 19.9479 10.2558 19.9479 10.9198 19.9479C10.9427 19.8605 11.0343 19.8605 11.0801 19.8023C11.1945 19.249 11.1029 18.4336 11.1258 17.7638C11.4006 17.7347 11.6295 17.6765 11.8814 17.6182C12.1104 19.5111 13.9649 20.4138 15.5447 19.5111C15.6363 17.6765 13.5299 18.5792 13.2322 17.2105C15.6592 16.1039 17.6053 14.4149 18.1319 10.8621C18.1777 9.8429 18.109 9.58082 18.109 9.58082ZM8.79049 16.2786C6.27197 15.5506 4.0282 13.7742 4.00531 10.4253C3.95952 7.01817 6.34066 5.09618 8.7447 4.45552C8.85918 8.24125 8.7676 12.3473 8.79049 16.2786ZM11.0801 16.2786C11.1258 12.3473 11.0114 8.24125 11.1258 4.45552C13.5986 5.1253 15.9797 6.7852 15.9797 10.3671C15.9797 13.9198 13.5986 15.6089 11.0801 16.2786Z" fill="white"/>
<path d="M28.2516 12.901C28.1829 12.901 28.16 12.9301 28.1143 13.0466L27.3358 15.6966C27.1984 16.1625 27.1068 16.5993 27.1068 16.8323C27.1068 17.1526 27.2442 17.4147 27.7021 17.4147H27.9311C28.1143 17.4147 28.16 17.4438 28.16 17.5603C28.16 17.7059 28.0685 17.735 27.9082 17.735C27.4503 17.735 26.8092 17.6768 26.3513 17.6768C26.191 17.6768 25.3897 17.735 24.6341 17.735C24.451 17.735 24.3594 17.7059 24.3594 17.5603C24.3594 17.4438 24.4281 17.4147 24.5425 17.4147C24.6799 17.4147 24.886 17.3856 25.0005 17.3856C25.6644 17.2691 25.9392 16.6284 26.2368 15.7257L29.9001 4.04816C30.0833 3.52398 30.152 3.29102 30.3122 3.29102C30.4496 3.29102 30.5412 3.46574 30.6786 3.87344C31.022 4.89267 33.3574 12.4641 34.2961 15.2889C34.8456 16.9488 35.2806 17.2109 35.5782 17.3273C35.8072 17.3856 36.0132 17.4147 36.1964 17.4147C36.3109 17.4147 36.3796 17.4438 36.3796 17.5603C36.3796 17.7059 36.2422 17.735 35.7156 17.735C35.189 17.735 34.1129 17.735 32.9452 17.7059C32.6934 17.6768 32.5102 17.6768 32.5102 17.5603C32.5102 17.4438 32.5789 17.4147 32.7163 17.3856C32.8079 17.3565 32.9223 17.1817 32.8536 16.9488L31.686 13.0174C31.6631 12.9301 31.6173 12.901 31.5486 12.901H28.2516ZM31.2281 11.9691C31.2967 11.9691 31.3196 11.9108 31.2967 11.8526L29.9917 7.25147C29.9688 7.16411 29.9688 7.07675 29.923 7.07675C29.8772 7.07675 29.8543 7.16411 29.8314 7.25147L28.4806 11.8235C28.4577 11.9108 28.4806 11.94 28.5493 11.94L31.2281 11.9691Z" fill="#0F1A2A"/>
<path d="M39.2212 3.75678C39.267 3.43644 39.3586 3.26172 39.4731 3.26172C39.5875 3.26172 39.6791 3.34908 39.8623 3.84414L43.8461 14.3277L47.83 3.72766C47.9215 3.43644 48.0131 3.29084 48.1505 3.29084C48.2879 3.29084 48.3795 3.46557 48.4024 3.87326L49.7303 15.3469C49.8677 16.5118 50.005 17.0651 50.4401 17.2107C50.8751 17.3854 51.1498 17.3854 51.3559 17.3854C51.4933 17.3854 51.5848 17.4145 51.5848 17.5019C51.5848 17.6475 51.4017 17.7057 51.1956 17.7057C50.8293 17.7057 48.8145 17.6475 48.2192 17.5893C47.8758 17.5601 47.8071 17.5019 47.8071 17.3854C47.8071 17.298 47.8758 17.2398 47.9673 17.1816C48.0589 17.1524 48.1047 16.8904 48.036 16.3953L47.166 8.21229H47.0973L43.9148 16.6574C43.5714 17.531 43.5027 17.7057 43.3653 17.7057C43.2279 17.7057 43.0906 17.3272 42.8616 16.7739C42.5182 15.9294 41.3505 13.0755 41.1902 12.5513C41.0529 12.1727 40.1828 9.81395 39.6791 8.41614H39.6104L38.8549 15.8129C38.832 16.1332 38.8091 16.3953 38.8091 16.6865C38.8091 17.036 38.9923 17.2107 39.2441 17.2689C39.496 17.3563 39.702 17.3563 39.8623 17.3563C39.9768 17.3563 40.0912 17.3854 40.0912 17.4728C40.0912 17.6475 39.9539 17.6766 39.7478 17.6766C39.1296 17.6766 38.4886 17.6184 38.2138 17.6184C37.9391 17.6184 37.2293 17.6766 36.7714 17.6766C36.634 17.6766 36.5195 17.6475 36.5195 17.4728C36.5195 17.3854 36.6111 17.3563 36.7485 17.3563C36.863 17.3563 36.9774 17.3563 37.1835 17.298C37.5956 17.1816 37.7101 16.4535 37.7788 15.842L39.2212 3.75678Z" fill="#0F1A2A"/>
<path d="M53.5747 9.08555C53.5747 6.26081 53.5747 5.73663 53.5518 5.15421C53.5289 4.51355 53.4144 4.22234 52.9336 4.10586C52.8191 4.07674 52.5673 4.04762 52.3612 4.04762C52.201 4.04762 52.1094 4.01849 52.1094 3.87289C52.1094 3.72728 52.201 3.69816 52.4299 3.69816C53.2084 3.69816 54.1242 3.75641 54.5363 3.75641C54.9942 3.75641 57.902 3.75641 58.1767 3.72728C58.4515 3.69816 58.6804 3.63992 58.7949 3.6108C58.8636 3.58168 58.9552 3.52344 59.0238 3.52344C59.0925 3.52344 59.1154 3.6108 59.1154 3.69816C59.1154 3.81465 59.0467 4.04762 59.001 4.89213C58.9781 5.06685 58.9552 5.88224 58.9323 6.11521C58.9094 6.20257 58.8865 6.31906 58.7949 6.31906C58.7033 6.31906 58.6575 6.23169 58.6575 6.05697C58.6575 5.94048 58.6346 5.62015 58.5659 5.38718C58.4744 5.06685 58.3141 4.83388 57.5814 4.7174C57.3296 4.68828 55.7956 4.63004 55.4979 4.63004C55.4292 4.63004 55.4063 4.68828 55.4063 4.80476V9.49325C55.4063 9.60973 55.4292 9.69709 55.4979 9.69709C55.8185 9.69709 57.4898 9.69709 57.8333 9.66797C58.1767 9.63885 58.4057 9.58061 58.543 9.37676C58.6346 9.23116 58.7033 9.14379 58.772 9.14379C58.8407 9.14379 58.8636 9.17291 58.8636 9.2894C58.8636 9.40588 58.7949 9.69709 58.7491 10.6581C58.7262 11.0367 58.6804 11.7647 58.6804 11.9103C58.6804 12.0559 58.6804 12.2597 58.543 12.2597C58.4515 12.2597 58.4057 12.1724 58.4057 12.085C58.3828 11.9103 58.3828 11.6482 58.337 11.4152C58.2683 11.0367 58.0622 10.7746 57.5127 10.6872C57.238 10.6581 55.7956 10.629 55.4292 10.629C55.3606 10.629 55.3377 10.7163 55.3377 10.8037V12.2597C55.3377 12.9004 55.3148 14.5894 55.3377 15.1427C55.3605 16.424 55.5895 16.7153 57.1006 16.7153C57.4898 16.7153 58.0851 16.7153 58.4744 16.4823C58.8636 16.2493 59.0238 15.8707 59.1383 15.1136C59.1612 14.9098 59.207 14.8224 59.2986 14.8224C59.4131 14.8224 59.4131 14.968 59.4131 15.1427C59.4131 15.5795 59.2986 16.8317 59.2299 17.2103C59.1383 17.7054 59.001 17.7054 58.4515 17.7054C56.2535 17.7054 55.269 17.5889 54.3989 17.5889C54.0555 17.5889 53.1397 17.6471 52.5673 17.6471C52.3841 17.6471 52.2696 17.5889 52.2696 17.4724C52.2696 17.385 52.3383 17.3268 52.4986 17.3268C52.7276 17.3268 52.8878 17.2977 53.0252 17.2394C53.3228 17.1521 53.3915 16.7444 53.4373 16.2202C53.506 15.4339 53.506 13.9779 53.506 12.2597V9.08555H53.5747Z" fill="#0F1A2A"/>
<path d="M64.7691 4.74617L62.594 4.83353C61.7469 4.86265 61.4035 4.95002 61.1745 5.35771C61.0371 5.64892 60.9455 5.85277 60.9226 5.99837C60.8998 6.14398 60.854 6.23134 60.7624 6.23134C60.6708 6.23134 60.625 6.14398 60.625 5.94013C60.625 5.64892 60.8998 3.9599 60.9226 3.8143C60.9684 3.58133 61.0142 3.46484 61.1058 3.46484C61.2203 3.46484 61.3577 3.63957 61.724 3.69781C62.159 3.75605 62.7085 3.78518 63.1893 3.78518H68.9819C69.9206 3.78518 70.2641 3.61045 70.3785 3.61045C70.4701 3.61045 70.493 3.72693 70.493 3.98902C70.493 4.3676 70.4472 5.64892 70.4472 6.14398C70.4243 6.3187 70.4014 6.43519 70.3098 6.43519C70.1954 6.43519 70.1725 6.34782 70.1496 6.05661L70.1267 5.85277C70.1038 5.35771 69.7146 4.86265 68.4095 4.80441L66.5779 4.74617V12.3759C66.5779 14.094 66.5779 15.5501 66.6466 16.3655C66.6923 16.8896 66.7839 17.2973 67.2189 17.3556C67.425 17.3847 67.7455 17.4429 67.9745 17.4429C68.1348 17.4429 68.2034 17.5012 68.2034 17.5885C68.2034 17.705 68.089 17.7633 67.9287 17.7633C66.9671 17.7633 66.0513 17.705 65.6391 17.705C65.2957 17.705 64.3799 17.7633 63.8075 17.7633C63.6243 17.7633 63.5098 17.705 63.5098 17.5885C63.5098 17.5012 63.5785 17.4429 63.7388 17.4429C63.9678 17.4429 64.128 17.4138 64.2654 17.3556C64.5631 17.2682 64.6546 16.8605 64.6775 16.3363C64.7462 15.5501 64.7462 14.094 64.7462 12.3759V4.74617H64.7691Z" fill="#0F1A2A"/>
<path d="M80.681 9.61096C80.7268 9.61096 80.7726 9.58184 80.7726 9.49448V9.1159C80.7726 6.29117 80.7726 5.76699 80.7497 5.18457C80.7268 4.5439 80.6123 4.25269 80.1315 4.13621C80.0171 4.10709 79.7652 4.07797 79.5591 4.07797C79.3989 4.07797 79.3073 4.04885 79.3073 3.90324C79.3073 3.75764 79.3989 3.72852 79.6049 3.72852C80.3834 3.72852 81.3221 3.78676 81.7113 3.78676C82.0548 3.78676 82.9706 3.72852 83.543 3.72852C83.749 3.72852 83.8406 3.75764 83.8406 3.90324C83.8406 4.04885 83.749 4.07797 83.5888 4.07797C83.4743 4.07797 83.3369 4.10709 83.1538 4.13621C82.7645 4.22357 82.65 4.5439 82.6043 5.18457C82.5814 5.76699 82.5814 6.29117 82.5814 9.1159V12.3775C82.5814 14.0956 82.5814 15.5516 82.6501 16.367C82.6958 16.8912 82.7874 17.2989 83.2224 17.3572C83.4285 17.3863 83.749 17.4445 83.978 17.4445C84.1383 17.4445 84.207 17.5028 84.207 17.5901C84.207 17.7066 84.0925 17.7648 83.9093 17.7648C82.9706 17.7648 82.0319 17.7066 81.6197 17.7066C81.2763 17.7066 80.3605 17.7648 79.7881 17.7648C79.582 17.7648 79.4905 17.7066 79.4905 17.5901C79.4905 17.5028 79.5591 17.4445 79.7194 17.4445C79.9484 17.4445 80.1086 17.4154 80.246 17.3572C80.5437 17.2698 80.6123 16.8621 80.6581 16.3379C80.7268 15.5516 80.7268 14.0956 80.7268 12.3775V10.7467C80.7268 10.6593 80.681 10.6302 80.6352 10.6302H75.0487C75.0029 10.6302 74.9571 10.6593 74.9571 10.7467V12.3775C74.9571 14.0956 74.9571 15.5516 75.0258 16.367C75.0716 16.8912 75.1632 17.2989 75.5982 17.3572C75.8043 17.3863 76.1248 17.4445 76.3538 17.4445C76.514 17.4445 76.5827 17.5028 76.5827 17.5901C76.5827 17.7066 76.4682 17.7648 76.2851 17.7648C75.3464 17.7648 74.4076 17.7066 73.9955 17.7066C73.6521 17.7066 72.7363 17.7648 72.1639 17.7648C71.9807 17.7648 71.8662 17.7066 71.8662 17.5901C71.8662 17.5028 71.9349 17.4445 72.0952 17.4445C72.3241 17.4445 72.4844 17.4154 72.6218 17.3572C72.9194 17.2698 72.9881 16.8621 73.0568 16.3379C73.1255 15.5516 73.1255 14.0956 73.1255 12.3775V9.1159C73.1255 6.29117 73.1255 5.76699 73.1026 5.18457C73.0797 4.5439 72.9652 4.25269 72.4844 4.13621C72.3699 4.10709 72.1181 4.07797 71.912 4.07797C71.7517 4.07797 71.6602 4.04885 71.6602 3.90324C71.6602 3.75764 71.7517 3.72852 71.9578 3.72852C72.7362 3.72852 73.675 3.78676 74.0642 3.78676C74.4076 3.78676 75.3464 3.72852 75.8958 3.72852C76.1019 3.72852 76.1935 3.75764 76.1935 3.90324C76.1935 4.04885 76.1019 4.07797 75.9416 4.07797C75.8272 4.07797 75.6898 4.10709 75.5295 4.13621C75.1403 4.22357 75.0258 4.5439 74.98 5.18457C74.9571 5.76699 74.9571 6.29117 74.9571 9.1159V9.49448C74.9571 9.58184 75.0029 9.61096 75.0487 9.61096H80.681Z" fill="#0F1A2A"/>
<path d="M87.3915 9.08661C87.3915 6.26187 87.3915 5.73769 87.3686 5.15527C87.3457 4.51461 87.1855 4.19428 86.8649 4.10691C86.7047 4.04867 86.5215 4.01955 86.3383 4.01955C86.201 4.01955 86.1094 3.99043 86.1094 3.84482C86.1094 3.72834 86.2239 3.69922 86.4528 3.69922C87.0023 3.69922 87.9181 3.75746 88.3531 3.75746C88.7195 3.75746 89.5895 3.69922 90.139 3.69922C90.3222 3.69922 90.4366 3.72834 90.4366 3.84482C90.4366 3.99043 90.3451 4.01955 90.2077 4.01955C90.0703 4.01955 89.9558 4.04867 89.7727 4.07779C89.3834 4.16516 89.269 4.48549 89.2232 5.12615C89.2003 5.70857 89.2003 6.23275 89.2003 9.05749V12.319C89.2003 14.1245 89.2003 15.5806 89.269 16.396C89.3148 16.891 89.4063 17.2405 89.8643 17.2987C90.0703 17.3279 90.3909 17.3861 90.6198 17.3861C90.7801 17.3861 90.8488 17.4443 90.8488 17.5317C90.8488 17.6482 90.7343 17.7064 90.574 17.7064C89.6124 17.7064 88.6966 17.6482 88.2845 17.6482C87.941 17.6482 87.0252 17.7064 86.4528 17.7064C86.2696 17.7064 86.1552 17.6482 86.1552 17.5317C86.1552 17.4443 86.2238 17.3861 86.3841 17.3861C86.6131 17.3861 86.7733 17.357 86.9107 17.2987C87.2084 17.2114 87.2999 16.9202 87.3228 16.3669C87.3915 15.5806 87.3915 14.1245 87.3915 12.319V9.08661Z" fill="#0F1A2A"/>
<path d="M93.1849 17.5299C92.956 17.4135 92.9102 17.297 92.9102 16.8893C92.9102 15.87 92.9788 14.7634 92.9788 14.4431C93.0017 14.1519 93.0475 13.9481 93.162 13.9481C93.2994 13.9481 93.2994 14.1228 93.2994 14.2684C93.2994 14.5014 93.3681 14.9091 93.4368 15.2294C93.7573 16.5981 94.6273 17.0931 95.5203 17.0931C96.8253 17.0931 97.4664 15.9574 97.4664 14.9673C97.4664 14.0645 97.2374 13.1909 96.024 11.997L95.36 11.3272C93.7573 9.72551 93.2078 8.41506 93.2078 6.92989C93.2078 4.89142 94.5586 3.40625 96.5735 3.40625C97.5122 3.40625 98.1304 3.58098 98.5196 3.72658C98.657 3.7557 98.7256 3.81394 98.7256 3.95955C98.7256 4.19252 98.657 4.74582 98.657 6.20187C98.657 6.60956 98.6112 6.75517 98.4967 6.75517C98.4051 6.75517 98.3593 6.63868 98.3593 6.43484C98.3593 6.26011 98.2906 5.67769 97.9701 5.21175C97.7411 4.8623 97.329 4.309 96.3674 4.309C95.2913 4.309 94.6273 5.09527 94.6273 6.23099C94.6273 7.0755 94.9708 7.74528 96.1842 8.91012L96.5964 9.2887C98.3593 11.0068 99.0004 12.259 99.0004 14.0354C99.0004 15.1129 98.6799 16.3942 97.6267 17.2679C96.894 17.8503 96.0698 18.025 95.3142 18.025C94.4671 17.9959 93.826 17.8794 93.1849 17.5299Z" fill="#0F1A2A"/>
</svg>
