<svg width="248" height="32" viewBox="0 0 248 32" fill="none" xmlns="http://www.w3.org/2000/svg">
<path d="M49.7262 10.4803C49.7262 11.3187 48.8659 12.0174 47.8335 12.0174H1.89269C0.860315 12.0174 0 11.3187 0 10.4803V2.14259C0 1.30416 0.860315 0.605469 1.89269 0.605469H47.8335C48.8659 0.605469 49.7262 1.30416 49.7262 2.14259V10.4803Z" fill="#FAA837"/>
<path d="M49.7262 29.577C49.7262 30.4154 48.8659 31.1141 47.8335 31.1141H1.89269C0.860315 31.1141 0 30.4154 0 29.577V14.625C0 13.7866 0.860315 13.0879 1.89269 13.0879H47.8335C48.8659 13.0879 49.7262 13.7866 49.7262 14.625V29.577Z" fill="#365A89"/>
<path fill-rule="evenodd" clip-rule="evenodd" d="M45.3675 15.3246C44.4499 11.1325 41.3527 8.71033 37.51 6.94032C36.1909 6.28821 34.757 5.77584 33.2658 5.26346C33.8393 2.84134 39.1733 4.33188 39.3453 1.49054C36.0188 -1.07132 30.3407 1.72344 29.8245 4.65793L27.8171 4.2853C27.7024 2.98108 28.1039 1.16448 27.5304 0.232897C27.3583 0.186317 27.2436 0.0931587 27.1289 0C25.5803 0 24.0318 0 22.4832 0C21.6802 0.885007 22.2538 2.88792 22.0817 4.2853C21.3361 4.2853 20.7052 4.42504 20.017 4.5182C19.5008 1.5837 13.88 -1.21106 10.6108 1.3508C10.7256 4.14556 16.0595 2.65502 16.633 5.07715C10.8403 7.03348 5.73573 9.59534 4.47393 15.3246C4.47393 15.3246 4.30187 15.7904 4.47393 17.3741C5.73573 22.8705 10.4961 25.5721 16.2316 27.3886C15.7727 27.9942 15.7154 28.786 14.7404 28.9723C13.9947 29.1121 13.2491 28.6929 12.5609 28.7394C11.0123 28.8792 10.3241 29.9505 9.69317 31.1616C12.1021 32.7453 17.0919 31.7671 18.6978 30.6492C19.9022 29.8108 20.3611 27.9942 22.1391 28.4134C22.3685 29.671 21.6229 31.2082 22.4258 31.9068C24.0891 31.9068 25.695 31.9068 27.3583 31.9068C27.4157 31.7671 27.6451 31.7671 27.7598 31.6739C28.0466 30.7889 27.8171 29.4847 27.8745 28.4134C28.5627 28.3668 29.1363 28.2737 29.7672 28.1805C30.3407 31.2082 34.9864 32.6521 38.9439 31.2082C39.1733 28.2737 33.8967 29.7176 33.1511 27.5284C39.2306 25.7584 44.1058 23.0568 45.4249 17.3741C45.5396 15.7438 45.3675 15.3246 45.3675 15.3246ZM22.0244 26.0378C15.7154 24.8734 10.0947 22.032 10.0373 16.6754C9.92259 11.2256 15.8874 8.15138 21.9096 7.12664C22.1964 13.182 21.967 19.7496 22.0244 26.0378ZM27.7598 26.0378C27.8745 19.7496 27.5877 13.182 27.8745 7.12664C34.0688 8.19796 40.0336 10.853 40.0336 16.5822C40.0336 22.2649 34.0688 24.9665 27.7598 26.0378Z" fill="white"/>
<path d="M70.7756 20.6349C70.6036 20.6349 70.5462 20.6814 70.4315 20.8677L68.4815 25.1065C68.1373 25.8517 67.9079 26.5504 67.9079 26.9231C67.9079 27.4354 68.252 27.8546 69.3991 27.8546H69.9727C70.4315 27.8546 70.5462 27.9012 70.5462 28.0875C70.5462 28.3204 70.3168 28.367 69.9153 28.367C68.7682 28.367 67.1623 28.2739 66.0152 28.2739C65.6137 28.2739 63.6063 28.367 61.7136 28.367C61.2548 28.367 61.0254 28.3204 61.0254 28.0875C61.0254 27.9012 61.1975 27.8546 61.4842 27.8546C61.8283 27.8546 62.3445 27.8081 62.6313 27.8081C64.2946 27.6218 64.9828 26.597 65.7284 25.153L74.9051 6.47473C75.364 5.63631 75.536 5.26367 75.9375 5.26367C76.2816 5.26367 76.5111 5.54315 76.8552 6.19526C77.7155 7.82554 83.5656 19.9362 85.9172 24.4544C87.2937 27.1094 88.3834 27.5286 89.129 27.7149C89.7025 27.8081 90.2187 27.8546 90.6776 27.8546C90.9643 27.8546 91.1364 27.9012 91.1364 28.0875C91.1364 28.3204 90.7923 28.367 89.4731 28.367C88.154 28.367 85.4583 28.367 82.5333 28.3204C81.9024 28.2739 81.4435 28.2739 81.4435 28.0875C81.4435 27.9012 81.6156 27.8546 81.9597 27.8081C82.1891 27.7615 82.4759 27.482 82.3038 27.1094L79.3788 20.8212C79.3214 20.6814 79.2067 20.6349 79.0346 20.6349H70.7756ZM78.2317 19.1443C78.4037 19.1443 78.4611 19.0512 78.4037 18.958L75.1345 11.5985C75.0772 11.4587 75.0772 11.319 74.9625 11.319C74.8478 11.319 74.7904 11.4587 74.7331 11.5985L71.3492 18.9114C71.2918 19.0512 71.3492 19.0977 71.5212 19.0977L78.2317 19.1443Z" fill="white"/>
<path d="M98.2483 6.00865C98.363 5.49627 98.5924 5.2168 98.8792 5.2168C99.1659 5.2168 99.3954 5.35653 99.8542 6.14838L109.834 22.9169L119.813 5.96207C120.043 5.49627 120.272 5.26338 120.616 5.26338C120.961 5.26338 121.19 5.54285 121.247 6.19496L124.574 24.5472C124.918 26.4104 125.262 27.2954 126.352 27.5283C127.442 27.8078 128.13 27.8078 128.646 27.8078C128.99 27.8078 129.22 27.8544 129.22 27.9941C129.22 28.227 128.761 28.3201 128.245 28.3201C127.327 28.3201 122.28 28.227 120.789 28.1338C119.928 28.0872 119.756 27.9941 119.756 27.8078C119.756 27.668 119.928 27.5749 120.158 27.4817C120.387 27.4351 120.502 27.0159 120.33 26.2241L118.15 13.1353H117.978L110.006 26.6433C109.146 28.0407 108.974 28.3201 108.629 28.3201C108.285 28.3201 107.941 27.7146 107.368 26.8296C106.507 25.4788 103.582 20.914 103.181 20.0756C102.837 19.4701 100.657 15.6971 99.3954 13.4613H99.2233L97.3306 25.2925C97.2733 25.8049 97.2159 26.2241 97.2159 26.6899C97.2159 27.2488 97.6747 27.5283 98.3056 27.6215C98.9365 27.7612 99.4527 27.7612 99.8542 27.7612C100.141 27.7612 100.428 27.8078 100.428 27.9475C100.428 28.227 100.084 28.2736 99.5674 28.2736C98.0189 28.2736 96.4129 28.1804 95.7247 28.1804C95.0364 28.1804 93.2585 28.2736 92.1114 28.2736C91.7672 28.2736 91.4805 28.227 91.4805 27.9475C91.4805 27.8078 91.7099 27.7612 92.054 27.7612C92.3408 27.7612 92.6276 27.7612 93.1437 27.668C94.1761 27.4817 94.4629 26.3172 94.635 25.3391L98.2483 6.00865Z" fill="white"/>
<path d="M134.21 14.5334C134.21 10.0152 134.21 9.17675 134.152 8.24516C134.095 7.22042 133.808 6.75462 132.604 6.56831C132.317 6.52173 131.686 6.47515 131.17 6.47515C130.768 6.47515 130.539 6.42857 130.539 6.19567C130.539 5.96277 130.768 5.91619 131.342 5.91619C133.292 5.91619 135.586 6.00935 136.619 6.00935C137.766 6.00935 145.05 6.00935 145.738 5.96277C146.426 5.91619 147 5.82304 147.287 5.77646C147.459 5.72988 147.688 5.63672 147.86 5.63672C148.032 5.63672 148.089 5.77646 148.089 5.91619C148.089 6.10251 147.917 6.47515 147.803 7.82595C147.745 8.10542 147.688 9.40964 147.631 9.78228C147.573 9.92202 147.516 10.1083 147.287 10.1083C147.057 10.1083 146.942 9.9686 146.942 9.68912C146.942 9.5028 146.885 8.99043 146.713 8.6178C146.484 8.10542 146.082 7.73279 144.247 7.54647C143.616 7.49989 139.773 7.40673 139.027 7.40673C138.855 7.40673 138.798 7.49989 138.798 7.68621V15.1855C138.798 15.3718 138.855 15.5115 139.027 15.5115C139.83 15.5115 144.017 15.5115 144.878 15.465C145.738 15.4184 146.311 15.3252 146.656 14.9992C146.885 14.7663 147.057 14.6265 147.229 14.6265C147.401 14.6265 147.459 14.6731 147.459 14.8594C147.459 15.0457 147.287 15.5115 147.172 17.0487C147.114 17.6542 147 18.8187 147 19.0516C147 19.2845 147 19.6105 146.656 19.6105C146.426 19.6105 146.311 19.4708 146.311 19.331C146.254 19.0516 146.254 18.6324 146.139 18.2597C145.967 17.6542 145.451 17.235 144.075 17.0952C143.386 17.0487 139.773 17.0021 138.855 17.0021C138.683 17.0021 138.626 17.1418 138.626 17.2816V19.6105C138.626 20.6353 138.569 23.3369 138.626 24.2219C138.683 26.2714 139.257 26.7372 143.042 26.7372C144.017 26.7372 145.509 26.7372 146.484 26.3645C147.459 25.9919 147.86 25.3864 148.147 24.1753C148.204 23.8492 148.319 23.7095 148.548 23.7095C148.835 23.7095 148.835 23.9424 148.835 24.2219C148.835 24.9206 148.548 26.9235 148.376 27.529C148.147 28.3209 147.803 28.3209 146.426 28.3209C140.92 28.3209 138.454 28.1345 136.274 28.1345C135.414 28.1345 133.12 28.2277 131.686 28.2277C131.227 28.2277 130.941 28.1345 130.941 27.9482C130.941 27.8085 131.113 27.7153 131.514 27.7153C132.088 27.7153 132.489 27.6687 132.833 27.5756C133.579 27.4358 133.751 26.7837 133.866 25.9453C134.038 24.6877 134.038 22.3587 134.038 19.6105V14.5334H134.21Z" fill="white"/>
<path d="M162.256 7.59246L156.807 7.7322C154.685 7.77878 153.825 7.91851 153.252 8.57063C152.907 9.03642 152.678 9.36247 152.621 9.59537C152.563 9.82827 152.449 9.96801 152.219 9.96801C151.99 9.96801 151.875 9.82827 151.875 9.50221C151.875 9.03642 152.563 6.33482 152.621 6.10192C152.735 5.72929 152.85 5.54297 153.079 5.54297C153.366 5.54297 153.71 5.82244 154.628 5.9156C155.718 6.00876 157.094 6.05534 158.299 6.05534H172.809C175.161 6.05534 176.021 5.77587 176.308 5.77587C176.537 5.77587 176.595 5.96218 176.595 6.3814C176.595 6.98693 176.48 9.03642 176.48 9.82827C176.423 10.1077 176.365 10.2941 176.136 10.2941C175.849 10.2941 175.792 10.1543 175.734 9.68853L175.677 9.36247C175.62 8.57063 174.645 7.77878 171.375 7.68562L166.787 7.59246V19.7962C166.787 22.5444 166.787 24.8734 166.959 26.1776C167.074 27.016 167.303 27.6681 168.393 27.7613C168.909 27.8079 169.712 27.901 170.286 27.901C170.687 27.901 170.859 27.9942 170.859 28.1339C170.859 28.3203 170.573 28.4134 170.171 28.4134C167.762 28.4134 165.468 28.3203 164.436 28.3203C163.575 28.3203 161.281 28.4134 159.847 28.4134C159.388 28.4134 159.102 28.3203 159.102 28.1339C159.102 27.9942 159.274 27.901 159.675 27.901C160.249 27.901 160.65 27.8545 160.994 27.7613C161.74 27.6216 161.969 26.9695 162.027 26.131C162.199 24.8734 162.199 22.5444 162.199 19.7962V7.59246H162.256Z" fill="white"/>
<path d="M202.117 15.3719C202.232 15.3719 202.347 15.3253 202.347 15.1856V14.5801C202.347 10.0619 202.347 9.22344 202.289 8.29186C202.232 7.26711 201.945 6.80132 200.741 6.615C200.454 6.56842 199.823 6.52184 199.307 6.52184C198.905 6.52184 198.676 6.47526 198.676 6.24237C198.676 6.00947 198.905 5.96289 199.421 5.96289C201.372 5.96289 203.723 6.05605 204.698 6.05605C205.558 6.05605 207.853 5.96289 209.286 5.96289C209.803 5.96289 210.032 6.00947 210.032 6.24237C210.032 6.47526 209.803 6.52184 209.401 6.52184C209.114 6.52184 208.77 6.56842 208.311 6.615C207.336 6.75474 207.05 7.26711 206.935 8.29186C206.878 9.22344 206.878 10.0619 206.878 14.5801V19.797C206.878 22.5451 206.878 24.8741 207.05 26.1783C207.164 27.0167 207.394 27.6689 208.483 27.762C209 27.8086 209.803 27.9018 210.376 27.9018C210.778 27.9018 210.95 27.9949 210.95 28.1347C210.95 28.321 210.663 28.4141 210.204 28.4141C207.853 28.4141 205.501 28.321 204.469 28.321C203.608 28.321 201.314 28.4141 199.88 28.4141C199.364 28.4141 199.135 28.321 199.135 28.1347C199.135 27.9949 199.307 27.9018 199.708 27.9018C200.282 27.9018 200.683 27.8552 201.027 27.762C201.773 27.6223 201.945 26.9702 202.06 26.1317C202.232 24.8741 202.232 22.5451 202.232 19.797V17.1885C202.232 17.0488 202.117 17.0022 202.002 17.0022H188.008C187.893 17.0022 187.779 17.0488 187.779 17.1885V19.797C187.779 22.5451 187.779 24.8741 187.951 26.1783C188.065 27.0167 188.295 27.6689 189.384 27.762C189.901 27.8086 190.704 27.9018 191.277 27.9018C191.679 27.9018 191.851 27.9949 191.851 28.1347C191.851 28.321 191.564 28.4141 191.105 28.4141C188.754 28.4141 186.402 28.321 185.37 28.321C184.509 28.321 182.215 28.4141 180.781 28.4141C180.322 28.4141 180.036 28.321 180.036 28.1347C180.036 27.9949 180.208 27.9018 180.609 27.9018C181.183 27.9018 181.584 27.8552 181.928 27.762C182.674 27.6223 182.846 26.9702 183.018 26.1317C183.19 24.8741 183.19 22.5451 183.19 19.797V14.5801C183.19 10.0619 183.19 9.22344 183.133 8.29186C183.075 7.26711 182.789 6.80132 181.584 6.615C181.298 6.56842 180.667 6.52184 180.15 6.52184C179.749 6.52184 179.52 6.47526 179.52 6.24237C179.52 6.00947 179.749 5.96289 180.265 5.96289C182.215 5.96289 184.567 6.05605 185.542 6.05605C186.402 6.05605 188.754 5.96289 190.13 5.96289C190.646 5.96289 190.876 6.00947 190.876 6.24237C190.876 6.47526 190.646 6.52184 190.245 6.52184C189.958 6.52184 189.614 6.56842 189.212 6.615C188.237 6.75474 187.951 7.26711 187.836 8.29186C187.779 9.22344 187.779 10.0619 187.779 14.5801V15.1856C187.779 15.3253 187.893 15.3719 188.008 15.3719H202.117Z" fill="white"/>
<path d="M218.922 14.5332C218.922 10.015 218.922 9.17657 218.864 8.24498C218.807 7.22024 218.406 6.70786 217.603 6.56813C217.201 6.47497 216.742 6.42839 216.284 6.42839C215.939 6.42839 215.71 6.38181 215.71 6.14891C215.71 5.96259 215.997 5.91602 216.57 5.91602C217.947 5.91602 220.241 6.00917 221.331 6.00917C222.248 6.00917 224.428 5.91602 225.804 5.91602C226.263 5.91602 226.55 5.96259 226.55 6.14891C226.55 6.38181 226.321 6.42839 225.976 6.42839C225.632 6.42839 225.345 6.47497 224.887 6.52155C223.912 6.66129 223.625 7.17366 223.51 8.1984C223.453 9.12999 223.453 9.96842 223.453 14.4866V19.7035C223.453 22.5914 223.453 24.9204 223.625 26.2246C223.74 27.0165 223.969 27.5754 225.116 27.6686C225.632 27.7151 226.435 27.8083 227.009 27.8083C227.41 27.8083 227.582 27.9015 227.582 28.0412C227.582 28.2275 227.296 28.3207 226.894 28.3207C224.485 28.3207 222.191 28.2275 221.159 28.2275C220.298 28.2275 218.004 28.3207 216.57 28.3207C216.111 28.3207 215.825 28.2275 215.825 28.0412C215.825 27.9015 215.997 27.8083 216.398 27.8083C216.972 27.8083 217.373 27.7617 217.717 27.6686C218.463 27.5288 218.692 27.063 218.75 26.178C218.922 24.9204 218.922 22.5914 218.922 19.7035V14.5332Z" fill="white"/>
<path d="M233.432 28.0402C232.859 27.8539 232.744 27.6676 232.744 27.0154C232.744 25.3852 232.916 23.6152 232.916 23.1028C232.974 22.637 233.088 22.3109 233.375 22.3109C233.719 22.3109 233.719 22.5904 233.719 22.8233C233.719 23.1959 233.891 23.8481 234.063 24.3604C234.866 26.5497 237.046 27.3415 239.283 27.3415C242.552 27.3415 244.158 25.5249 244.158 23.9412C244.158 22.4973 243.584 21.0999 240.544 19.1901L238.881 18.1188C234.866 15.5569 233.49 13.4609 233.49 11.0853C233.49 7.82476 236.874 5.44922 241.921 5.44922C244.272 5.44922 245.821 5.72869 246.796 5.96159C247.14 6.00817 247.312 6.10133 247.312 6.33423C247.312 6.70686 247.14 7.59187 247.14 9.92083C247.14 10.5729 247.025 10.8058 246.739 10.8058C246.509 10.8058 246.394 10.6195 246.394 10.2935C246.394 10.014 246.222 9.08241 245.419 8.33714C244.846 7.77819 243.814 6.89318 241.405 6.89318C238.709 6.89318 237.046 8.15082 237.046 9.96741C237.046 11.3182 237.906 12.3895 240.946 14.2527L241.978 14.8582C246.394 17.6064 248 19.6093 248 22.4507C248 24.1741 247.197 26.2236 244.559 27.621C242.724 28.5526 240.659 28.832 238.766 28.832C236.644 28.7855 235.038 28.5991 233.432 28.0402Z" fill="white"/>
</svg>
